<?xml version="1.0" encoding="UTF-8"?>
<svg width="60px" height="21px" viewBox="0 0 60 21" version="1.1" xmlns="http://www.w3.org/2000/svg" xmlns:xlink="http://www.w3.org/1999/xlink">
    <title>Group 8</title>
    <defs>
        <polygon id="path-1" points="0 0 19 0 19 21 0 21"></polygon>
    </defs>
    <g id="Symbols" stroke="none" stroke-width="1" fill="none" fill-rule="evenodd">
        <g id="element-/-d-footer" transform="translate(-365, -69)">
            <g id="Group-8" transform="translate(365, 69)">
                <path d="M0,18.1442437 L2.39977547,14.9520681 C3.95756385,16.1284157 6.0214426,16.8841272 8.08352512,16.8841272 C9.7261858,16.8841272 11.1582374,16.0441989 11.1582374,14.7845304 C11.1582374,12.6419292 7.15756385,12.5164999 4.16862195,11.0458414 C2.35801291,10.1642527 0.84198709,8.77781096 0.84198709,6.21591758 C0.84198709,2.18336569 4.63160258,0 8.46342969,0 C11.1995509,0 13.641538,1.00746603 15.1571148,2.22547409 L12.9683974,5.46020606 C11.7474039,4.66193818 10.3575639,4.11542482 8.79977547,4.11542482 C7.11580129,4.11542482 5.68464777,4.82992385 5.68464777,6.08959235 C5.68464777,7.43392564 7.95778838,7.81200538 10.3153522,8.61027326 C13.0523716,9.53397043 16,10.9204121 16,14.7845304 C16,18.7324175 12.1259613,21 8.16839742,21 C5.1785574,21 2.31580129,20.0763028 0,18.1442437" id="Fill-1" fill="#FFFFFF"></path>
                <g id="Group-5" transform="translate(18, 0)">
                    <mask id="mask-2" fill="white">
                        <use xlink:href="#path-1"></use>
                    </mask>
                    <g id="Clip-4"></g>
                    <path d="M9.5821605,4.07439956 C7.10412947,4.07439956 5.20452596,5.88001792 4.83227063,8.10624547 L14.20914,8.10624547 C13.8373252,5.79625443 11.9782513,4.07439956 9.5821605,4.07439956 M18.9176192,11.6758244 L4.54283661,11.6758244 C4.79085998,14.6998208 7.31074219,16.7997312 10.450022,16.7997312 C12.8456723,16.7997312 14.7047462,15.5818011 15.8611607,14.4476345 L18.5872151,17.1356811 C16.6047903,19.613647 13.3831297,21 10.4090519,21 C4.25428366,21 0,16.673862 0,10.5 C0,4.70464144 3.71770734,0 9.66542234,0 C15.2831737,0 19,4.66208779 19,10.4162365 C19,10.7942921 18.9590299,11.2977689 18.9176192,11.6758244" id="Fill-3" fill="#FFFFFF" mask="url(#mask-2)"></path>
                </g>
                <path d="M52.1591033,7.35165911 C50.048997,11.6666667 47.7575851,14.4217596 45.712586,15.1623521 L45.712586,0.0133440085 L41,0.0133440085 L41,20 L44.6342479,20 C49.0059253,20 52.9761083,16.4006761 56.4349285,9.30166355 C58.382719,5.30379859 59.6052876,1.35708567 60,0 L55.0758156,0 C54.5205959,1.72982831 53.5240939,4.56009252 52.1591033,7.35165911" id="Fill-6" fill="#FFFFFF"></path>
            </g>
        </g>
    </g>
</svg>